# xmcd
#
# Track frame offsets: 
#        182
#        13052
#        28087
#        61210
#        90760
#        114405
#        125667
#        133472
#        161932
#        169492
#        184297
#        197517
#        212597
#        228760
#        247590
#        264840
#
# Disc length: 3722 seconds
#
# Revision: 3
# Processed by: cddbd v1.5.2PL0 Copyright (c) Steve Scherf et al.
# Submitted via: ExactAudioCopyFreeDBPlugin 1.0
#
DISCID=d60e8810
DTITLE=Duster Bennett - Out In The Blue
DYEAR=1995
DGENRE=Blues
TTITLE0=Worried Mind
TTITLE1=I've Been A Fool
TTITLE2=I Wonder, I Wonder
TTITLE3=Down The Road
TTITLE4=Trying So Hard To Forget
TTITLE5=Kind Hearted Woman
TTITLE6=Coming, I'm Coming (inst.)
TTITLE7=I'm Thinking About A Woman
TTITLE8=Two Harps (inst.)
TTITLE9=Everybody's Got A Friend But Me
TTITLE10=Blues With A Feeling
TTITLE11=As Years Roll By (inst.)
TTITLE12=I Don't Wanna Fuss
TTITLE13=Sleep With Myself
TTITLE14=Losing Love
TTITLE15=Everyday
EXTD=
EXTT0=
EXTT1=
EXTT2=
EXTT3=
EXTT4=
EXTT5=
EXTT6=
EXTT7=
EXTT8=
EXTT9=
EXTT10=
EXTT11=
EXTT12=
EXTT13=
EXTT14=
EXTT15=
PLAYORDER=
